<?xml version="1.0" encoding="utf-8"?>
<!-- Generator: Adobe Illustrator 21.0.0, SVG Export Plug-In . SVG Version: 6.00 Build 0)  -->
<svg version="1.1" id="Layer_1" xmlns="http://www.w3.org/2000/svg" xmlns:xlink="http://www.w3.org/1999/xlink" x="0px" y="0px"
	 width="1400px" height="980px" viewBox="0 0 1400 980" style="enable-background:new 0 0 1400 980;" xml:space="preserve">
<style type="text/css">
	.st0{fill-rule:evenodd;clip-rule:evenodd;fill:#E34C37;}
	.st1{fill-rule:evenodd;clip-rule:evenodd;fill:#F2A741;}
	.st2{fill-rule:evenodd;clip-rule:evenodd;fill:#5D4A44;}
	.st3{fill-rule:evenodd;clip-rule:evenodd;fill:#39ADBC;}
	.st4{fill-rule:evenodd;clip-rule:evenodd;fill:#F2EDD7;}
</style>
<g>
	<rect x="809.2" y="0" class="st0" width="590.8" height="980"/>
	<path class="st1" d="M1024.7,646.1c11.3-116.7-95-212.3-212.3-212.3c-117.2,0-223.6,95.6-212.3,212.3
		c5.2,53.9,23.1,100.3-21.9,156.1C537.6,852.8,506,912.3,498.5,980h627.8c-7.4-67.7-39-127.2-79.7-177.8
		C1001.6,746.4,1019.5,700,1024.7,646.1z"/>
	<circle class="st2" cx="812.4" cy="701.5" r="90.2"/>
	<rect y="0" class="st3" width="809.2" height="980"/>
	<rect y="0" class="st0" width="371.3" height="980"/>
	<path class="st2" d="M982,332.8c0,224.4,181.9,406.3,406.3,406.3c3.9,0,7.9-0.1,11.8-0.2V0h-244.8C1050.5,73.5,982,195.1,982,332.8
		z"/>
	<circle class="st2" cx="1043.6" cy="569.7" r="140.6"/>
	<path class="st4" d="M1177.3,508.8c110-59.8,185.6-182,199.6-348.9h-312.7v562.8c78.3,136.7,223.9,201.4,335.8,201.4V370.3
		C1348.1,443.5,1270.2,491.7,1177.3,508.8z"/>
	<path class="st2" d="M1203.5,0.5c-0.1-0.2-0.2-0.3-0.3-0.5h-81.6c-87.2,30.2-206.3,128.7-162.9,321.8
		C970.7,196.6,1054.2,78.7,1203.5,0.5z"/>
	<path class="st2" d="M1048.5,501.6c195.6-7.4,341.5-142.5,351.5-357.6h-351.5V501.6z"/>
	<circle class="st4" cx="1064.2" cy="555.3" r="71.9"/>
	<rect x="734.9" y="920.3" class="st0" width="155" height="21.2"/>
	<circle class="st0" cx="812.4" cy="701.5" r="71.2"/>
	<path class="st0" d="M409.8,752.3V792c0,19.3-15.8,35-35,35c-20.2,0-40.4,0-60.6,0c-42.1,0-76.5,34.4-76.5,76.5V980h172.1h190.8
		h85.3V556.5h-80.2C498,556.5,409.8,644.6,409.8,752.3z"/>
	<path class="st3" d="M237.8,903.5V980h133.5V827h-57C272.2,827,237.8,861.4,237.8,903.5z"/>
	<g>
		<rect x="742.6" y="0" class="st2" width="139.6" height="525.8"/>
		<g>
			<rect x="851.4" y="0" class="st4" width="9.5" height="941.6"/>
			<rect x="807.6" y="0" class="st4" width="9.5" height="941.6"/>
			<rect x="763.9" y="0" class="st4" width="9.5" height="941.6"/>
		</g>
	</g>
	<rect x="685.9" y="556.5" class="st4" width="123.3" height="423.5"/>
	<g>
		<path class="st2" d="M746.1,575c0-3-2.4-5.4-5.4-5.4h-49.5c-3,0-5.4,2.4-5.4,5.4v8.3c0,3,2.4,5.4,5.4,5.4h49.5
			c3,0,5.4-2.4,5.4-5.4v-3.1h63v-2.2h-63V575z"/>
		<path class="st2" d="M746.1,606.5c0-3-2.4-5.4-5.4-5.4h-49.5c-3,0-5.4,2.4-5.4,5.4v8.3c0,3,2.4,5.4,5.4,5.4h49.5
			c3,0,5.4-2.4,5.4-5.4v-3.1h63v-2.2h-63V606.5z"/>
		<path class="st2" d="M746.1,638c0-3-2.4-5.4-5.4-5.4h-49.5c-3,0-5.4,2.4-5.4,5.4v8.3c0,3,2.4,5.4,5.4,5.4h49.5
			c3,0,5.4-2.4,5.4-5.4v-3.1h63v-2.2h-63V638z"/>
		<path class="st2" d="M746.1,669.6c0-3-2.4-5.4-5.4-5.4h-49.5c-3,0-5.4,2.4-5.4,5.4v8.3c0,3,2.4,5.4,5.4,5.4h49.5
			c3,0,5.4-2.4,5.4-5.4v-3.1h63v-2.2h-63V669.6z"/>
		<path class="st2" d="M746.1,701.1c0-3-2.4-5.4-5.4-5.4h-49.5c-3,0-5.4,2.4-5.4,5.4v8.3c0,3,2.4,5.4,5.4,5.4h49.5
			c3,0,5.4-2.4,5.4-5.4v-3.1h63v-2.2h-63V701.1z"/>
		<path class="st2" d="M746.1,732.6c0-3-2.4-5.4-5.4-5.4h-49.5c-3,0-5.4,2.4-5.4,5.4v8.3c0,3,2.4,5.4,5.4,5.4h49.5
			c3,0,5.4-2.4,5.4-5.4v-3.1h63v-2.2h-63V732.6z"/>
		<path class="st2" d="M746.1,764.1c0-3-2.4-5.4-5.4-5.4h-49.5c-3,0-5.4,2.4-5.4,5.4v8.3c0,3,2.4,5.4,5.4,5.4h49.5
			c3,0,5.4-2.4,5.4-5.4v-3.1h63v-2.2h-63V764.1z"/>
		<path class="st2" d="M746.1,795.6c0-3-2.4-5.4-5.4-5.4h-49.5c-3,0-5.4,2.4-5.4,5.4v8.3c0,3,2.4,5.4,5.4,5.4h49.5
			c3,0,5.4-2.4,5.4-5.4v-3.1h63v-2.2h-63V795.6z"/>
		<path class="st2" d="M746.1,827.1c0-3-2.4-5.4-5.4-5.4h-49.5c-3,0-5.4,2.4-5.4,5.4v8.3c0,3,2.4,5.4,5.4,5.4h49.5
			c3,0,5.4-2.4,5.4-5.4v-3.1h63v-2.2h-63V827.1z"/>
		<path class="st2" d="M746.1,858.6c0-3-2.4-5.4-5.4-5.4h-49.5c-3,0-5.4,2.4-5.4,5.4v8.3c0,3,2.4,5.4,5.4,5.4h49.5
			c3,0,5.4-2.4,5.4-5.4v-3.1h63v-2.2h-63V858.6z"/>
		<path class="st2" d="M746.1,890.1c0-3-2.4-5.4-5.4-5.4h-49.5c-3,0-5.4,2.4-5.4,5.4v8.3c0,3,2.4,5.4,5.4,5.4h49.5
			c3,0,5.4-2.4,5.4-5.4v-3.1h63v-2.2h-63V890.1z"/>
		<path class="st2" d="M746.1,921.6c0-3-2.4-5.4-5.4-5.4h-49.5c-3,0-5.4,2.4-5.4,5.4v8.3c0,3,2.4,5.4,5.4,5.4h49.5
			c3,0,5.4-2.4,5.4-5.4v-3.1h63v-2.2h-63V921.6z"/>
		<path class="st2" d="M746.1,953.1c0-3-2.4-5.4-5.4-5.4h-49.5c-3,0-5.4,2.4-5.4,5.4v8.3c0,3,2.4,5.4,5.4,5.4h49.5
			c3,0,5.4-2.4,5.4-5.4v-3.1h63v-2.2h-63V953.1z"/>
	</g>
	<g>
		<path class="st1" d="M175.6,670.9c0,13.6-11.1,24.7-24.7,24.7h-32.1c-13.6,0-24.7-11.1-24.7-24.7v-85V432v-49.3
			c0-44.3-36.2-80.5-80.5-80.5H0v485.5c10.8,5.4,23,8.5,35.8,8.5h93.6h11.1H234c44.3,0,80.5-36.2,80.5-80.5V562.8H175.6V670.9z"/>
		<path class="st3" d="M331.5,549.7h-169c-10,0-18.1,8.2-18.1,18.1c0,10,8.1,18.1,18.1,18.1h169c10,0,18.1-8.1,18.1-18.1
			C349.6,557.9,341.5,549.7,331.5,549.7z"/>
		<g>
			<path class="st3" d="M109.7,473.3H67c-3,0-5.5,2.5-5.5,5.5c0,3,2.5,5.5,5.5,5.5h42.6c3,0,5.5-2.5,5.5-5.5
				C115.1,475.8,112.7,473.3,109.7,473.3z"/>
			<circle class="st2" cx="114.4" cy="478.8" r="14.1"/>
		</g>
		<g>
			<path class="st3" d="M109.7,521.9H67c-3,0-5.5,2.5-5.5,5.5c0,3,2.5,5.5,5.5,5.5h42.6c3,0,5.5-2.5,5.5-5.5
				C115.1,524.4,112.7,521.9,109.7,521.9z"/>
			<circle class="st2" cx="114.4" cy="527.4" r="14.1"/>
		</g>
		<g>
			<path class="st3" d="M109.7,570.5H67c-3,0-5.5,2.5-5.5,5.5c0,3,2.5,5.5,5.5,5.5h42.6c3,0,5.5-2.5,5.5-5.5
				C115.1,572.9,112.7,570.5,109.7,570.5z"/>
			<circle class="st2" cx="114.4" cy="576" r="14.1"/>
		</g>
		<g>
			<path class="st3" d="M109.7,619.1H67c-3,0-5.5,2.5-5.5,5.5c0,3,2.5,5.5,5.5,5.5h42.6c3,0,5.5-2.5,5.5-5.5
				C115.1,621.5,112.7,619.1,109.7,619.1z"/>
			<circle class="st2" cx="114.4" cy="624.5" r="14.1"/>
		</g>
	</g>
	<g>
		<g>
			<g>
				<polygon class="st2" points="0,258.1 371.3,435.4 371.3,0 0,0 				"/>
				<polygon class="st2" points="371.3,435.4 742.6,258.1 742.6,0 371.3,0 				"/>
			</g>
			<polygon class="st4" points="0,213.7 371.3,391 371.3,0 0,0 			"/>
			<polygon class="st4" points="371.3,391 742.6,213.7 742.6,0 371.3,0 			"/>
			<polygon class="st2" points="83.6,97.2 287.7,194.7 287.7,186.4 83.6,89 			"/>
			<polygon class="st2" points="83.6,125.4 287.7,222.8 287.7,214.5 83.6,117.1 			"/>
			<polygon class="st2" points="83.6,69.1 287.7,166.5 287.7,158.2 83.6,60.8 			"/>
			<polygon class="st2" points="83.6,153.6 287.7,251 287.7,242.7 83.6,145.3 			"/>
			<polygon class="st2" points="174.8,0 287.7,53.9 287.7,45.6 192.2,0 			"/>
			<polygon class="st2" points="115.8,0 287.7,82.1 287.7,73.8 133.2,0 			"/>
			<polygon class="st2" points="233.8,0 287.7,25.7 287.7,17.4 251.1,0 			"/>
			<polygon class="st2" points="83.6,12.8 287.7,110.2 287.7,101.9 83.6,4.5 			"/>
			<polygon class="st2" points="83.6,40.9 287.7,138.4 287.7,130.1 83.6,32.6 			"/>
			<polygon class="st2" points="454.9,251 659,153.6 659,145.3 454.9,242.7 			"/>
			<polygon class="st2" points="491.5,0 454.9,17.4 454.9,25.7 508.8,0 			"/>
			<polygon class="st2" points="454.9,222.8 659,125.4 659,117.1 454.9,214.5 			"/>
			<polygon class="st2" points="550.4,0 454.9,45.6 454.9,53.9 567.8,0 			"/>
			<polygon class="st2" points="609.4,0 454.9,73.8 454.9,82.1 626.8,0 			"/>
			<polygon class="st2" points="454.9,194.7 659,97.2 659,89 454.9,186.4 			"/>
			<polygon class="st2" points="454.9,110.2 659,12.8 659,4.5 454.9,101.9 			"/>
			<polygon class="st2" points="454.9,138.4 659,40.9 659,32.6 454.9,130.1 			"/>
			<polygon class="st2" points="454.9,166.5 659,69.1 659,60.8 454.9,158.2 			"/>
			<rect x="329.5" y="399.7" class="st2" width="83.5" height="35.7"/>
		</g>
		<polygon class="st0" points="409.1,263.6 417,257.1 424.8,263.6 424.8,0 409.1,0 		"/>
	</g>
	<path class="st2" d="M1035.1,532.6l33.1,19.2c-20.2-1-24.8,34.4-0.2,40.1c16.2,3.8,30.4-12.3,32-27.7
		C1102.1,542.6,1075.5,508.7,1035.1,532.6z"/>
	<path class="st2" d="M1323.5,827h-283.6v153H1400v-76.5C1400,861.4,1365.6,827,1323.5,827z"/>
	<path class="st2" d="M1363.6,523.2h-148.8c-4.8,0-8.7,3.9-8.7,8.8c0,4.8,3.9,8.7,8.7,8.7h148.8c4.8,0,8.7-3.9,8.7-8.7
		C1372.3,527.2,1368.4,523.2,1363.6,523.2z"/>
	<ellipse class="st3" cx="1326.4" cy="569.2" rx="37.2" ry="37.2"/>
	<circle class="st4" cx="1343.9" cy="558.5" r="12.8"/>
	<path class="st1" d="M639,433.8h-12.5v15.5v7.5v8.8v16.3c0,6.8-3.6,12.6-9,15.7c-1.6-4.1-5.6-7-10.2-7h-12.2
		c-6,0-10.9,4.9-10.9,10.9c0,6,4.9,10.9,10.9,10.9h7.4h4.8h1.1c16.8,0,30.6-13.8,30.6-30.6v-16.3h40v16.3c0,6.8-3.6,12.6-9,15.7
		c-1.6-4.1-5.6-7-10.2-7h-12.2c-6,0-10.9,4.9-10.9,10.9c0,6,4.9,10.9,10.9,10.9h7.4h4.8h1.1c16.8,0,30.6-13.8,30.6-30.6v-16.3v-8.8
		v-7.5v-15.5H679H639z M679,456.8h-40v-7.5h40V456.8z"/>
	<path class="st0" d="M504.6,433.8h-12.5v15.5v7.5v8.8v16.3c0,6.8-3.6,12.6-9,15.7c-1.6-4.1-5.6-7-10.2-7h-12.2
		c-6,0-10.9,4.9-10.9,10.9c0,6,4.9,10.9,10.9,10.9h7.4h4.8h1.1c16.8,0,30.6-13.8,30.6-30.6v-16.3h40v16.3c0,6.8-3.6,12.6-9,15.7
		c-1.6-4.1-5.6-7-10.2-7h-12.2c-6,0-10.9,4.9-10.9,10.9c0,6,4.9,10.9,10.9,10.9h7.4h4.8h1.1c16.8,0,30.6-13.8,30.6-30.6v-16.3v-8.8
		v-7.5v-15.5h-12.5H504.6z M544.6,456.8h-40v-7.5h40V456.8z"/>
	<g>
		<rect y="884.2" class="st2" width="164.3" height="52.4"/>
		<polygon class="st1" points="164.3,936.6 203.3,910.4 164.3,884.2 		"/>
	</g>
</g>
</svg>
