<svg id="Capa_1" enable-background="new 0 0 501 501" height="512" viewBox="0 0 501 501" width="512" xmlns="http://www.w3.org/2000/svg"><g><path d="m490 256c0 135.31-109.69 245-245 245-14.471 0-28.648-1.255-42.43-3.661-2.758-.482-199.095-199.944-199.403-201.843-2.084-12.857-3.167-26.05-3.167-39.496 0-135.31 109.69-245 245-245s245 109.69 245 245z" fill="#533672"/><path d="m416.861 256c0 94.916-76.945 171.861-171.861 171.861s-171.861-76.945-171.861-171.861 76.945-171.861 171.861-171.861 171.861 76.945 171.861 171.861z" fill="#644189"/><path d="m107.904 436.199-44.564-44.564 305.233-305.233 44.564 44.564z" fill="#36818b"/><path d="m308.645 334.436c-1.178 1.307-2.397 2.589-3.655 3.848-.606.606-1.219 1.203-1.836 1.791-17.056 16.231-28.636 37.232-33.098 60.35-5.328 27.604-18.68 53.967-40.057 75.343-8.442 8.442-17.662 15.632-27.428 21.571-102.283-17.859-182.762-99.151-199.404-201.846 5.74-9.235 12.608-17.954 20.606-25.953 21.556-21.555 48.181-34.952 76.038-40.188 22.609-4.25 43.4-15.604 59.121-32.399 1.064-1.137 2.159-2.254 3.286-3.352.825-.804 1.661-1.592 2.506-2.362 26.176-23.854 67.993-16.295 84.126 15.231 4.715 9.215 10.93 17.861 18.644 25.575 7.577 7.577 16.052 13.707 25.083 18.391 31.437 16.306 39.789 57.705 16.068 84z" fill="#f87b67"/><path d="m246.968 203.092c-19.513-11.747-45.693-10.523-64.121 6.271-.845.771-1.681 1.558-2.506 2.362-1.126 1.097-2.221 2.215-3.285 3.352-15.721 16.795-36.512 28.148-59.121 32.399-27.857 5.237-54.482 18.633-76.038 40.188-12.998 12.998-23.012 27.897-30.046 43.825-3.766-11.641-6.685-23.664-8.684-35.995 5.74-9.235 12.608-17.954 20.606-25.952 21.556-21.556 48.181-34.952 76.038-40.188 22.609-4.25 43.4-15.604 59.121-32.399 1.064-1.137 2.159-2.254 3.285-3.352.825-.804 1.661-1.592 2.506-2.362 25.214-22.979 64.94-16.809 82.245 11.851z" fill="#e5554e"/><path d="m177.192 413.917c-25.286 25.286-66.284 25.286-91.57 0s-25.286-66.284 0-91.57 66.284-25.286 91.57 0c25.286 25.287 25.286 66.284 0 91.57z" fill="#23535a"/><path d="m90.2 418.496-9.157-9.157 305.233-305.233 9.157 9.157zm282.341-328.126-9.157-9.157-305.233 305.233 9.157 9.157zm45.175 45.174-9.157-9.157-305.234 305.234 9.157 9.157z" fill="#95ced6"/><path d="m111.978 399.771-18.314 18.314c-3.372 3.372-8.838 3.372-12.209 0s-3.371-8.838 0-12.209l18.314-18.314c3.371-3.372 8.838-3.372 12.209 0 3.371 3.371 3.371 8.837 0 12.209zm-22.893-35.102c-3.371-3.372-8.838-3.372-12.209 0l-18.314 18.314c-3.372 3.372-3.372 8.838 0 12.209 3.372 3.372 8.838 3.372 12.209 0l18.314-18.314c3.372-3.371 3.372-8.837 0-12.209zm45.175 45.175c-3.371-3.372-8.838-3.372-12.209 0l-18.314 18.314c-3.372 3.372-3.372 8.838 0 12.209 3.371 3.371 8.838 3.371 12.209 0l18.314-18.314c3.371-3.371 3.371-8.838 0-12.209z" fill="#f5e8b4"/><path d="m118.082 393.666-6.105 6.105c-3.371 3.372-8.838 3.372-12.209 0-3.372-3.372-3.372-8.838 0-12.209l6.105-6.104c3.371-3.372 8.838-3.372 12.209 0s3.372 8.837 0 12.208zm-22.892-35.102c-3.371-3.372-8.838-3.372-12.209 0l-6.105 6.104c-3.372 3.372-3.372 8.838 0 12.209s8.838 3.372 12.209 0l6.105-6.104c3.371-3.371 3.371-8.837 0-12.209zm45.174 45.175c-3.371-3.372-8.838-3.372-12.209 0l-6.105 6.105c-3.372 3.372-3.372 8.838 0 12.209 3.372 3.372 8.838 3.372 12.209 0l6.105-6.104c3.372-3.372 3.372-8.839 0-12.21z" fill="#fff5f5"/><path d="m404.412 138.443-43.316-43.316c-9.343-9.343-10.325-23.51-2.193-31.643l56.016-56.016c8.132-8.132 22.299-7.151 31.643 2.193l43.316 43.316c9.343 9.343 10.325 23.51 2.193 31.643l-56.016 56.016c-8.133 8.132-22.3 7.151-31.643-2.193z" fill="#fa9084"/><path d="m360.644 94.665c-8.921-9.343-9.74-23.181-1.741-31.18l56.016-56.016c7.999-7.999 21.837-7.18 31.18 1.741z" fill="#f87b67"/><path d="m412.334 45.813c3.181 3.181 3.181 8.339 0 11.521-3.181 3.181-8.339 3.181-11.521 0l-17.281-17.281c-3.181-3.181-3.181-8.339 0-11.521 3.181-3.181 8.339-3.181 11.521 0zm21.601-21.6-17.281-17.281c-3.181-3.181-8.339-3.181-11.52 0s-3.181 8.339 0 11.52l17.281 17.281c3.181 3.181 8.339 3.181 11.521 0 3.18-3.181 3.18-8.339-.001-11.52zm-59.907 25.345c-3.181-3.181-8.339-3.181-11.52 0-3.181 3.181-3.181 8.339 0 11.521l17.281 17.281c3.181 3.181 8.339 3.181 11.52 0 3.181-3.181 3.181-8.339 0-11.521z" fill="#fbb3a8"/><path d="m374.667 45.588c3.181 3.181 3.181 8.339 0 11.521l-5.76 5.76c-3.181 3.181-8.339 3.181-11.52 0s-3.181-8.339 0-11.52l5.76-5.761c3.18-3.181 8.338-3.181 11.52 0zm10.368-21.889-5.76 5.76c-3.181 3.181-3.181 8.339 0 11.52s8.339 3.181 11.52 0l5.76-5.76c3.181-3.181 3.181-8.339 0-11.52s-8.339-3.181-11.52 0zm32.834-21.313c-3.181-3.181-8.339-3.181-11.52 0l-5.76 5.76c-3.181 3.181-3.181 8.339 0 11.521 3.181 3.181 8.339 3.181 11.521 0l5.76-5.76c3.18-3.182 3.18-8.34-.001-11.521z" fill="#e5554e"/><path d="m492.498 82.775-17.281-17.281c-3.181-3.181-8.339-3.181-11.52 0s-3.181 8.339 0 11.52l17.281 17.281c3.181 3.181 8.339 3.181 11.521 0 3.18-3.181 3.18-8.338-.001-11.52zm-59.907 25.345c-3.181-3.181-8.339-3.181-11.52 0s-3.181 8.339 0 11.521l17.281 17.281c3.181 3.181 8.339 3.181 11.52 0s3.181-8.339 0-11.521zm21.601-21.601c-3.181-3.181-8.339-3.181-11.52 0s-3.181 8.339 0 11.521l17.281 17.281c3.181 3.181 8.339 3.181 11.52 0s3.181-8.339 0-11.521z" fill="#fbb3a8"/><path d="m454.192 86.519c3.181 3.181 3.181 8.339 0 11.521-3.181 3.181-8.339 3.181-11.52 0l-5.76-5.76c-3.181-3.181-3.181-8.339 0-11.521 3.181-3.181 8.339-3.181 11.52 0zm-27.361 15.841c-3.181-3.181-8.339-3.181-11.521 0-3.181 3.181-3.181 8.339 0 11.52l5.76 5.761c3.181 3.181 8.339 3.181 11.52 0 3.181-3.181 3.181-8.339 0-11.521zm48.386-36.865-5.76-5.761c-3.181-3.181-8.339-3.181-11.52 0s-3.181 8.339 0 11.521l5.76 5.76c3.181 3.181 8.339 3.181 11.52 0 3.181-3.182 3.181-8.339 0-11.52zm-57.123-2.401c3.181-3.181 3.181-8.339 0-11.52l-5.76-5.761c-3.181-3.181-8.339-3.181-11.52 0s-3.181 8.339 0 11.521l5.76 5.76c3.181 3.182 8.339 3.182 11.52 0zm10.081-21.601c3.181 3.181 8.339 3.181 11.521 0 3.181-3.181 3.181-8.339 0-11.52l-5.76-5.761c-3.181-3.181-8.339-3.181-11.52 0s-3.181 8.339 0 11.521zm-36.866 25.346c-3.181-3.181-8.339-3.181-11.521 0-3.181 3.181-3.181 8.339 0 11.52l5.76 5.761c3.181 3.181 8.339 3.181 11.52 0 3.181-3.181 3.181-8.339 0-11.521z" fill="#fff5f5"/><path d="m498.614 83.131c3.181 3.181 3.181 8.339 0 11.521l-5.76 5.76c-3.181 3.181-8.339 3.181-11.521 0-3.181-3.181-3.181-8.339 0-11.521l5.76-5.76c3.182-3.181 8.34-3.181 11.521 0zm-21.313 21.313c-3.181-3.181-8.339-3.181-11.52 0l-5.76 5.76c-3.181 3.181-3.181 8.339 0 11.52 3.181 3.181 8.339 3.181 11.52 0l5.76-5.76c3.181-3.181 3.181-8.339 0-11.52zm-33.409 21.889-5.76 5.761c-3.181 3.181-3.181 8.339 0 11.52s8.339 3.181 11.52 0l5.76-5.76c3.181-3.181 3.181-8.339 0-11.521-3.181-3.181-8.339-3.181-11.52 0z" fill="#f87b67"/><path d="m188.644 68.077c2.337-.033 4.584.33 6.68 1.026v-59.602c0-6.676 6.71-11.266 12.932-8.846l60.757 23.628c5.766 2.242 9.563 7.794 9.563 13.98v77.082c0 12.598-9.852 23.289-22.445 23.65-13.704.393-24.819-11.139-23.732-24.985.878-11.18 9.932-20.265 21.109-21.177 4-.326 7.807.366 11.193 1.845v-58.197l-55.501-21.584v73.231h-.001c.001.071.001.142.001.212 0 11.192-9.073 20.266-20.266 20.266-11.552 0-20.847-9.666-20.237-21.351.549-10.533 9.401-19.031 19.947-19.178z" fill="#fff36c"/><path d="m234.122 106.95c3.582 8.521 12.121 14.446 22.008 14.162 12.592-.361 22.443-11.049 22.446-23.646v17.878c0 12.599-9.852 23.289-22.446 23.65-13.704.393-24.819-11.14-23.732-24.985.195-2.478.792-4.853 1.724-7.059zm-45.188 1.656c11.192 0 20.266-9.073 20.266-20.266 0-.071-.001-.142-.001-.212h.001v-17.67c0 11.192-9.073 20.266-20.266 20.266-7.97 0-14.866-4.601-18.176-11.292-1.188 2.387-1.916 5.034-2.062 7.824-.609 11.684 8.686 21.35 20.238 21.35zm20.264-38.361c.001.07.001.142.001.212v-.212z" fill="#eac23f"/><path d="m370.384 288.5c2.76-.35 5.414-.058 7.834.746v-49.075c0-7.034 7.069-11.869 13.624-9.32l48.978 19.047c5.766 2.242 9.563 7.794 9.563 13.98v65.371c0 11.046-8.702 20.427-19.746 20.588-11.739.171-21.205-9.749-20.283-21.643.751-9.694 8.595-17.579 18.286-18.377 3.472-.286 6.778.314 9.717 1.598v-50.447l-48.111-18.71v63.479h-.001c0 .062.001.123.001.184 0 9.702-7.865 17.567-17.567 17.567-10.363 0-18.631-8.974-17.455-19.575.881-7.947 7.228-14.407 15.16-15.413z" fill="#95ced6"/><path d="m411.896 321.943c3.096 7.245 10.336 12.296 18.741 12.173 11.045-.161 19.747-9.542 19.747-20.587v15.719c0 11.045-8.702 20.426-19.747 20.588-11.739.171-21.205-9.749-20.283-21.643.17-2.196.705-4.3 1.542-6.25zm-56.673-18.03c-1.176 10.601 7.092 19.575 17.455 19.575 9.702 0 17.567-7.865 17.567-17.567 0-.062 0-.123-.001-.184h.001v-15.535c0 9.702-7.865 17.567-17.567 17.567-6.876 0-12.83-3.952-15.715-9.708-.906 1.802-1.509 3.776-1.74 5.852z" fill="#70bdc8"/><path d="m79.428 225.878c4.392-.39 8.575.356 12.288 1.978v-83.41c0-4.552 4.067-8.027 8.564-7.318l30.184 4.766c3.601.569 6.253 3.672 6.253 7.318 0 4.552-4.067 8.028-8.564 7.317l-21.436-3.385v97.055c0 13.363-10.906 25.183-24.263 25.567-14.839.427-26.87-12.081-25.652-27.079.974-12.001 10.634-21.743 22.626-22.809z" fill="#fff5f5"/><path d="m58.198 242.288c3.557 9.841 13.115 16.811 24.255 16.491 13.357-.384 24.263-12.204 24.263-25.566v16.987c0 13.363-10.906 25.183-24.263 25.566-14.839.427-26.87-12.081-25.652-27.08.181-2.224.66-4.37 1.397-6.398z" fill="#f5e8b4"/></g></svg>