<svg id="Capa_1" enable-background="new 0 0 497.123 497.123" height="512" viewBox="0 0 497.123 497.123" width="512" xmlns="http://www.w3.org/2000/svg"><g><g><path d="m443.517 392.135c-4.142 0-7.5-3.358-7.5-7.5v-103.023c0-4.142 3.358-7.5 7.5-7.5s7.5 3.358 7.5 7.5v103.022c0 4.143-3.358 7.501-7.5 7.501z" fill="#d7d0d6"/></g><g><path d="m53.016 392.135c-4.142 0-7.5-3.358-7.5-7.5v-110.023c0-4.142 3.358-7.5 7.5-7.5s7.5 3.358 7.5 7.5v110.022c0 4.143-3.358 7.501-7.5 7.501z" fill="#d7d0d6"/></g><path d="m476.338 377.508h-8.081-23.05v40.988l23.05.583h8.081c11.479 0 20.785-9.306 20.785-20.785 0-11.48-9.306-20.786-20.785-20.786z" fill="#6cf5c2"/><path d="m430.067 437.952h19.712c10.205 0 18.478-8.273 18.478-18.478v-42.361c0-10.205-8.273-18.478-18.478-18.478h-19.712-38.525v79.317z" fill="#9cf8d2"/><path d="m28.866 377.508h-8.081c-11.479 0-20.785 9.306-20.785 20.785 0 11.479 9.306 20.785 20.785 20.785h8.081l20.056-1.9v-39.671h-20.056z" fill="#6cf5c2"/><g id="XMLID_1002_"><g><path d="m95.08 358.637v79.31h-28.02-19.72c-10.2 0-18.47-8.27-18.47-18.47v-42.36c0-10.21 8.27-18.48 18.47-18.48h19.72z" fill="#9cf8d2"/></g></g><path d="m133.45 343.357v109.87c0 2.92-2.37 5.29-5.29 5.29h-35.25c-13.32 0-24.12-10.8-24.12-24.12v-72.21c0-13.32 10.8-24.12 24.12-24.12h35.25c2.92 0 5.29 2.37 5.29 5.29z" fill="#baafb9"/><path d="m221.901 419.472-1.964 11.754v10.302c0 15.646 12.683 28.329 28.329 28.329s28.329-12.683 28.329-28.329v-10.302l1.827-11.754z" fill="#c9bfc8"/><path d="m247.06 167.807c-56.29.82-102.14 46.83-102.78 103.13-.4 35.44 16.86 66.86 43.54 86.02 7.7 5.53 13.63 13.18 17.19 21.96l9.23 22.8 5.698 14.754h57.684l5.378-14.754 9.23-22.79c3.62-8.94 9.77-16.59 17.57-22.24 26.16-18.97 43.17-49.77 43.17-84.54 0-58.15-47.56-105.19-105.91-104.34z" fill="#fee45a"/><path d="m250.352 406.274-9.23-22.8c-3.56-8.78-9.49-16.43-17.19-21.96-26.68-19.16-43.94-50.58-43.54-86.02.626-55.108 44.57-100.349 99.22-103.01-10.263-3.188-21.202-4.842-32.552-4.677-56.29.82-102.14 46.83-102.78 103.13-.4 35.44 16.86 66.86 43.54 86.02 7.7 5.53 13.63 13.18 17.19 21.96l9.23 22.8 5.698 14.754h34.352z" fill="#fedf30"/><g><path d="m265.611 419.215c-4.142 0-7.5-3.358-7.5-7.5v-84.914h-17.982v84.914c0 4.142-3.358 7.5-7.5 7.5s-7.5-3.358-7.5-7.5v-84.914h-9.024c-12.437 0-22.556-10.118-22.556-22.555s10.119-22.556 22.556-22.556h1.469c12.437 0 22.555 10.118 22.555 22.555v7.556h17.982v-7.556c0-12.437 10.118-22.555 22.555-22.555h1.469c12.437 0 22.556 10.118 22.556 22.555s-10.119 22.556-22.556 22.556h-9.024v84.914c0 4.142-3.358 7.5-7.5 7.5zm7.5-107.414h9.024c4.166 0 7.556-3.389 7.556-7.555s-3.39-7.556-7.556-7.556h-1.469c-4.166 0-7.555 3.389-7.555 7.555zm-57.007-15.111c-4.166 0-7.556 3.389-7.556 7.555s3.39 7.556 7.556 7.556h9.024v-7.556c0-4.166-3.389-7.555-7.555-7.555z" fill="#fed402"/></g><path d="m279.625 401.715h-62.01c-8.149 0-14.756 6.606-14.756 14.756 0 8.149 6.606 14.756 14.756 14.756h62.01c8.149 0 14.756-6.606 14.756-14.756 0-8.15-6.607-14.756-14.756-14.756z" fill="#d7d0d6"/><path d="m95.079 338.067h15v120.45h-15z" fill="#aa9ea9"/><g id="XMLID_1001_"><g><path d="m428.34 362.187v72.21c0 13.32-10.8 24.12-24.13 24.12h-35.25c-2.92 0-5.29-2.37-5.29-5.29v-109.87c0-2.92 2.37-5.29 5.29-5.29h35.25c13.33 0 24.13 10.8 24.13 24.12z" fill="#baafb9"/></g></g><path d="m387.044 338.067h15v120.45h-15z" fill="#aa9ea9"/><g id="XMLID_1003_"><g><path d="m426.02 240.017 17.69-6 17.31 6v52.43c0 6.17-5 11.17-11.17 11.17h-12.67c-6.16 0-11.16-5-11.16-11.17v-50.89c0-.51 0-1.03-.01-1.54z" fill="#efedef"/><path d="m70.52 241.857v50.59c0 6.17-5 11.17-11.17 11.17h-12.67c-6.16 0-11.16-5-11.16-11.17v-50.59l14.925-6z" fill="#efedef"/><path d="m461.02 240.017h-35-.01c-.83-97.03-80.45-177.7-177.65-177.75-98.06-.05-177.84 79.71-177.84 177.75v1.84h-35c0-116.96 95.68-214.53 212.64-214.59 117.36-.06 212.86 95.41 212.86 212.75z" fill="#9cf8d2"/></g></g><g><path d="m248.266 125.253c-4.142 0-7.5-3.358-7.5-7.5v-18.758c0-4.142 3.358-7.5 7.5-7.5s7.5 3.358 7.5 7.5v18.758c0 4.142-3.358 7.5-7.5 7.5z" fill="#fee45a"/></g><g><path d="m183.512 146.575c-2.339 0-4.643-1.09-6.107-3.138l-10.912-15.258c-2.409-3.369-1.631-8.054 1.738-10.463 3.371-2.409 8.055-1.631 10.463 1.738l10.912 15.258c2.409 3.369 1.631 8.054-1.738 10.463-1.321.945-2.846 1.4-4.356 1.4z" fill="#fee45a"/></g><g><path d="m313.02 146.575c-1.51 0-3.034-.455-4.356-1.4-3.369-2.41-4.147-7.094-1.738-10.463l10.912-15.258c2.408-3.37 7.093-4.147 10.463-1.738 3.369 2.41 4.147 7.094 1.738 10.463l-10.912 15.258c-1.464 2.047-3.768 3.138-6.107 3.138z" fill="#fee45a"/></g></g></svg>