<svg id="Capa_1" enable-background="new 0 0 512 512" height="512" viewBox="0 0 512 512" width="512" xmlns="http://www.w3.org/2000/svg"><g><g><g><path d="m326 387.389s27.073-69.404 79.741-64.974c51.073 4.296 58.485 49.609 75.492 74.229 3.119 4.516 2.174 10.67-2.118 14.09-14.499 11.555-47.319 30.613-83.326 4.113-38.413-28.272-69.789-27.458-69.789-27.458z" fill="#27e19d"/><path d="m456.568 352.358c-9.636 6.874-20.783 11.177-32.591 12.578-9.556 14.169-25.286 23.895-43.197 25.166-.53.04-1.061.07-1.601.09l4.263 16.37c-32.571-19.813-57.446-19.172-57.446-19.172s27.077-69.404 79.75-64.971c25.786 2.171 40.445 14.799 50.822 29.939z" fill="#26d192"/></g><g><path d="m172.889 131.995s-68.219-29.933-102.329 10.442c-33.076 39.152-6.276 76.435-.893 105.869.987 5.399 6.007 9.082 11.461 8.466 18.423-2.082 55.106-11.813 61.828-56.012 7.172-47.154 29.933-68.765 29.933-68.765z" fill="#1ec186"/><path d="m172.888 131.999s-13.679 12.988-23.165 40.806c-.46.12-.941.25-1.421.39-9.466 2.682-24.225 8.435-40.776 20.623-15.33 11.277-31.8 17.091-48.981 17.271-6.034-21.253-8.305-44.598 12.018-68.653 34.102-40.376 102.325-10.437 102.325-10.437z" fill="#1eb07c"/></g><g><path d="m331.115 285.238s-29.933-68.219 10.442-102.329c39.152-33.076 76.435-6.276 105.869-.893 5.399.987 9.082 6.007 8.466 11.461-2.082 18.423-11.813 55.106-56.012 61.828-47.154 7.171-68.765 29.933-68.765 29.933z" fill="#1ec186"/></g><g><path d="m165.45 150.239s-27.073-69.404-79.741-64.974c-51.073 4.296-58.485 49.609-75.492 74.229-3.119 4.516-2.174 10.67 2.118 14.09 14.499 11.555 47.319 30.613 83.326 4.113 38.413-28.272 69.789-27.458 69.789-27.458z" fill="#27e19d"/><path d="m165.454 150.24s-13.218-.34-32.991 7.144c-15.48-1.981-29.789-8.996-41.006-20.203l-39.815-39.814c8.665-6.384 19.622-10.887 34.072-12.098 52.663-4.433 79.74 64.971 79.74 64.971z" fill="#26d192"/></g><g><g><path d="m379.384 330.507c-19.917-19.917-19.917-52.209 0-72.125l41.874-41.874c2.043-2.043 5.355-2.043 7.398 0l64.727 64.727c2.043 2.043 2.043 5.355 0 7.398l-41.874 41.874c-19.917 19.917-52.208 19.917-72.125 0z" fill="#c21d2c"/></g><g><path d="m379.384 330.507 45.573-45.573c18.518-18.518 19.819-47.734 3.902-67.755-1.95-2.453-5.599-2.674-7.814-.458l-41.66 41.66c-19.918 19.917-19.918 52.209-.001 72.126z" fill="#fb4a59"/><path d="m424.958 284.932-45.575 45.575c-6.562-6.562-10.972-14.479-13.206-22.854l34.092-34.092c13.347-13.347 17.749-32.25 13.206-49.267l7.569-7.569c2.22-2.22 5.859-1.998 7.813.459 15.921 20.02 14.619 49.229-3.899 67.748z" fill="#f82f40"/><path d="m379.384 330.507 45.573-45.573c18.518-18.518 47.734-19.819 67.755-3.902 2.453 1.95 2.674 5.599.458 7.814l-41.66 41.66c-19.917 19.918-52.209 19.918-72.126.001z" fill="#fb6672"/><path d="m493.164 288.845-41.661 41.661c-19.917 19.917-52.204 19.917-72.12 0l4.047-4.047c17.564 5.578 37.555 1.391 51.486-12.54l41.542-41.542c5.778 1.827 11.297 4.713 16.247 8.656 2.457 1.953 2.679 5.593.459 7.812z" fill="#fb4a59"/></g></g><g><g><path d="m177.738 123.032c-19.917 19.917-52.209 19.917-72.126 0l-41.873-41.874c-2.043-2.043-2.043-5.355 0-7.398l64.727-64.727c2.043-2.043 5.355-2.043 7.398 0l41.874 41.874c19.917 19.916 19.917 52.208 0 72.125z" fill="#c21d2c"/></g><g><path d="m177.738 123.032-45.573-45.573c-18.518-18.519-47.734-19.819-67.754-3.902-2.453 1.95-2.674 5.599-.458 7.814l41.66 41.66c19.917 19.918 52.209 19.918 72.125.001z" fill="#fb4a59"/><path d="m132.163 77.458 45.575 45.575c-6.562 6.562-14.479 10.972-22.854 13.206l-34.092-34.092c-13.347-13.347-32.25-17.749-49.267-13.207l-7.569-7.569c-2.22-2.22-1.998-5.859.459-7.813 20.02-15.92 49.23-14.618 67.748 3.9z" fill="#f82f40"/><path d="m177.738 123.032-45.573-45.573c-18.518-18.518-19.819-47.734-3.902-67.755 1.95-2.453 5.599-2.674 7.814-.458l41.66 41.66c19.918 19.917 19.918 52.209.001 72.126z" fill="#fb6672"/><path d="m136.077 9.252 41.661 41.661c19.917 19.917 19.917 52.204 0 72.12l-4.047-4.047c5.578-17.564 1.391-37.555-12.54-51.486l-41.542-41.542c1.827-5.778 4.713-11.297 8.656-16.247 1.952-2.457 5.592-2.679 7.812-.459z" fill="#fb4a59"/></g></g><g><path d="m363.765 460.132c6.55 0 11.334-6.189 9.684-12.527l-22.871-87.854h.292c7.255 7.063 17.394 11.179 28.489 10.392 18.144-1.287 32.841-15.921 34.194-34.061 1.463-19.602-12.362-36.265-30.785-39.325 11.08-20.583 17.299-44.17 17.107-69.228-.6-78.314-64.576-142.229-142.89-142.758-79.923-.54-144.881 64.086-144.881 143.885 0 24.638 6.197 47.827 17.111 68.101-18.422 3.06-32.247 19.723-30.785 39.325 1.353 18.139 16.049 32.774 34.194 34.061 11.095.787 21.234-3.328 28.49-10.392l-22.871 87.854c-1.65 6.339 3.134 12.527 9.684 12.527z" fill="#fff2e3"/><path d="m413.55 336.085c-1.351 18.131-16.05 32.771-34.192 34.062-9.626.68-18.542-2.332-25.466-7.755 7.985-6.234 13.368-15.67 14.169-26.307 1.186-15.915-7.706-29.898-20.953-36.228-4.943-2.362-7.124-8.158-4.912-13.17 7.975-18.074 12.347-38.101 12.187-59.16-.54-70.925-53.084-130.052-121.177-140.959 7.735-1.241 15.68-1.851 23.775-1.801 78.319.53 142.29 64.451 142.89 142.76.19 25.056-6.024 48.651-17.101 69.234 18.423 3.051 32.241 19.722 30.78 39.324z" fill="#ffe5c4"/><g><g><g><circle cx="196.739" cy="245.773" fill="#d68a5a" r="35.499"/><path d="m221.842 270.87c-13.868 13.868-36.34 13.868-50.201.007-3.538-3.538-6.177-7.649-7.903-12.021 12.757 5.059 27.856 2.427 38.187-7.903 10.323-10.323 12.955-25.422 7.896-38.18 4.373 1.726 8.484 4.366 12.021 7.903 13.861 13.861 13.861 36.333 0 50.194z" fill="#c47a4a"/><circle cx="315.243" cy="245.773" fill="#d68a5a" r="35.499"/><g><path d="m340.347 270.87c-13.868 13.868-36.34 13.868-50.208 0-3.538-3.538-6.177-7.634-7.896-12.014 12.757 5.059 27.856 2.427 38.187-7.903 10.323-10.323 12.955-25.422 7.896-38.18 4.38 1.719 8.476 4.358 12.014 7.896 13.868 13.868 13.868 36.34.007 50.201z" fill="#c47a4a"/></g></g></g></g></g></g><g><path d="m508.189 120.1c-2.692-2.08-6.348-2.041-8.972-.146-10.815-30.199-30.762-56.086-56.506-74.312l1.054-6.537c.659-4.089-2.121-7.939-6.21-8.599-4.089-.665-7.939 2.122-8.599 6.21l-.036.222c-22.317-12.508-48.028-19.654-75.38-19.654-3.315 0-6.614.117-9.897.326l-4.78-5.855c-2.619-3.208-7.344-3.688-10.553-1.066-2.727 2.226-3.473 5.969-2.031 9.013-18.21 3.244-35.588 9.712-51.382 19.049l-10.146-5.248c-3.677-1.902-8.203-.464-10.106 3.216-1.903 3.679-.464 8.205 3.216 10.107l2.798 1.447c-9.536 7.174-18.316 15.491-26.118 24.879-1.411 1.698-1.938 3.834-1.647 5.86-11.267 1.714-22.221 4.683-32.702 8.834.277-15.67-5.742-30.835-17.15-42.243l-6.628-6.628c-2.93-2.929-7.678-2.929-10.607 0s-2.929 7.678 0 10.606l6.628 6.628c10.314 10.314 14.69 24.759 11.943 38.991-5.078 2.734-10.011 5.765-14.774 9.089l-32.135-32.135c-.004-.004-.008-.007-.011-.011-15.04-15.05-16.94-38.592-4.839-55.751l7.528 7.527c2.928 2.93 7.677 2.929 10.606 0s2.929-7.678-.001-10.606l-9.371-9.372c-.033-.033-.071-.061-.104-.094-.038-.039-.07-.082-.109-.12-2.405-2.403-5.602-3.727-9.002-3.727s-6.598 1.324-9.003 3.729l-64.728 64.727c-4.558 4.558-4.918 11.734-1.106 16.721-22.923 11.314-33.748 32.98-42.639 50.797-3.556 7.127-6.915 13.86-10.643 19.256-5.333 7.717-3.745 18.355 3.613 24.219.756.602 1.583 1.24 2.468 1.9-.344 3.76-.527 7.575-.527 11.367 0 16.391 3.152 32.213 9.218 46.917l-7.443 11.562c-2.242 3.483-1.235 8.124 2.247 10.366 1.256.809 2.662 1.195 4.053 1.195 2.465 0 4.88-1.214 6.313-3.441l2.624-4.077c2.919 4.929 6.182 9.699 9.822 14.264 6.442 8.079 13.874 15.284 22.049 21.47l-.382 7.642c-.207 4.137 2.979 7.658 7.116 7.865.127.006.254.009.38.009 3.623 0 6.691-2.597 7.354-6.097 7.603 4.241 15.645 7.679 23.988 10.223-4.452 7.581-6.697 16.564-5.992 26.025.789 10.581 5.363 20.167 12.348 27.419-9.999 8.693-17.739 19.568-22.705 31.636l-8.718 1.453c-4.086.681-6.846 4.545-6.164 8.631.611 3.669 3.788 6.268 7.389 6.268.409 0 .824-.034 1.242-.103l1.456-.243c-1.019 5.235-1.553 10.594-1.553 16.015 0 19.587 6.735 37.62 17.985 51.947l-3.299 9.595c-1.347 3.917.737 8.185 4.654 9.531.808.278 1.63.41 2.438.41 3.114 0 6.023-1.954 7.093-5.063l.793-2.306c14.723 12.562 33.795 20.17 54.62 20.17 13.528 0 26.641-3.329 38.34-9.331l12.03 6.516c1.136.615 2.359.907 3.565.907 2.664 0 5.244-1.423 6.602-3.929 1.973-3.642.619-8.194-3.022-10.167l-4.82-2.611c8.727-6.976 16.115-15.687 21.545-25.752h96.204c.007 0 .014.001.021.001.004 0 .008-.001.012-.001h34.759c5.462 0 10.511-2.479 13.852-6.8 3.34-4.322 4.467-9.832 3.09-15.117l-9.792-37.617c6.935 3.611 13.77 7.888 20.43 12.789 6.261 4.608 12.806 8.197 19.451 10.665.861.32 1.743.471 2.61.471 3.045 0 5.909-1.869 7.031-4.891 1.442-3.883-.536-8.2-4.419-9.642-5.336-1.982-10.646-4.904-15.783-8.685-11.018-8.109-22.521-14.658-34.22-19.529l-3.62-13.904c5.562 1.884 11.506 2.678 17.494 2.25 9.305-.66 17.851-4.247 24.728-9.828 5.634 2.277 10.953 5.896 15.84 10.783 1.465 1.464 3.385 2.197 5.304 2.197s3.839-.732 5.304-2.197c2.929-2.929 2.929-7.678 0-10.606-5.011-5.011-10.448-8.992-16.219-11.949.607-1.01 1.174-2.047 1.701-3.107 8.976-.166 17.722-2.388 25.604-6.432 9.222 9.389 15.301 21.54 21.187 33.335 3.801 7.618 7.392 14.814 11.726 21.087.866 1.254.593 2.994-.621 3.962-5.863 4.672-15.254 10.888-26.695 13.97-4 1.077-6.369 5.192-5.292 9.192.901 3.346 3.93 5.551 7.237 5.551.646 0 1.303-.084 1.955-.26 13.93-3.751 25.168-11.165 32.143-16.723 7.357-5.863 8.945-16.501 3.615-24.219-3.729-5.397-7.089-12.13-10.646-19.258-5.785-11.593-12.242-24.503-22.109-35.253.737-.665 1.459-1.35 2.166-2.056l41.672-41.672c.038-.038.069-.081.106-.119.031-.03.064-.055.095-.085 4.964-4.964 4.964-13.041 0-18.005l-17.133-17.13c17.458-25.665 26.669-55.594 26.669-86.833 0-11.89-1.352-23.469-3.904-34.596l5.217-6.751c2.534-3.277 1.929-7.987-1.348-10.52zm-403.586 108.555c0 4.57.22 9.131.633 13.67-9.151 4.443-18.482 6.262-24.95 6.993-1.545.172-2.967-.863-3.241-2.362-1.372-7.5-3.921-15.125-6.619-23.2-2.765-8.274-5.597-16.764-7.225-25.403 11.552-.967 24.059-5.162 36.906-14.617 4.764-3.506 9.622-6.678 14.54-9.532-6.595 17.139-10.044 35.525-10.044 54.451zm44.704-107.41c-2.99 2.969-5.831 6.047-8.539 9.213-11.28-.221-21.814-4.692-29.852-12.73l-39.815-39.815c17.156-12.098 40.7-10.201 55.75 4.838.004.004.007.007.01.011l30.787 30.786c-2.859 2.45-5.641 5.016-8.341 7.697zm-56.292-66.155 16.781-16.781c-.331 6.346.364 12.723 2.085 18.866-6.143-1.721-12.519-2.417-18.866-2.085zm-76.627 108.666c4.333-6.273 7.923-13.468 11.724-21.084 9.294-18.625 18.899-37.849 40.477-46.058l18.213 18.213c-9.651 2.738-18.498 8.076-26.416 15.995-2.929 2.929-2.929 7.678 0 10.606 1.465 1.464 3.385 2.197 5.304 2.197s3.839-.732 5.304-2.197c8.533-8.533 17.955-13.018 28.738-13.672l.579.579c8.327 8.327 18.642 13.81 29.875 16.025-1.725 2.563-3.358 5.177-4.916 7.83-11.638 4.862-23.091 11.398-34.053 19.466-11.809 8.691-23.227 11.887-33.64 11.886-17.216-.001-31.678-8.739-40.566-15.823-1.216-.969-1.489-2.709-.623-3.963zm31.777 96.393c-9.247-11.597-15.857-24.635-19.684-38.556l3.3.001h.002c4.141 0 7.499-3.356 7.5-7.498s-3.355-7.501-7.498-7.502l-6.313-.002c-.576-4.562-.869-9.193-.869-13.877 0-.805.013-1.612.031-2.418 6.674 3.329 14.544 6.218 23.264 7.531 1.707 10.922 5.177 21.331 8.302 30.683 2.525 7.555 4.91 14.69 6.09 21.143 1.565 8.558 9.115 14.683 17.662 14.683.668 0 1.342-.038 2.02-.114 6.659-.753 15.909-2.497 25.467-6.453 2.311 11.815 6.012 23.336 11.04 34.256-3.84 1.551-7.385 3.607-10.565 6.08-.192-.063-.385-.125-.585-.173-5.563-1.343-10.995-3.147-16.254-5.357l3.117-1.388c3.784-1.685 5.485-6.119 3.801-9.903-1.686-3.785-6.119-5.485-9.902-3.8l-12.396 5.52c-.48.214-.927.473-1.337.769-9.899-6.367-18.788-14.338-26.193-23.625zm110.363 236.851c-3.638 0-7.21-.286-10.698-.828l1.311-1.73c2.501-3.302 1.853-8.006-1.449-10.507s-8.006-1.853-10.508 1.449l-4.884 6.446c-17.358-7.127-31.194-21.103-38.148-38.549 3.47-.527 6.201-3.438 6.361-7.078.181-4.138-3.026-7.64-7.165-7.821l-3.307-.145c-.525-3.431-.798-6.944-.798-10.52 0-12.217 3.259-24.061 9.187-34.416l.503.645c1.479 1.896 3.687 2.887 5.918 2.887 1.613 0 3.238-.518 4.608-1.587 3.266-2.548 3.848-7.261 1.3-10.526l-3.12-3.999c2.494-2.706 5.217-5.224 8.148-7.526 4.995 2.461 10.501 4.019 16.305 4.431 5.87.417 11.703-.336 17.175-2.144l-18.283 70.235c-1.376 5.285-.25 10.795 3.091 15.117 3.34 4.322 8.389 6.8 13.851 6.8h34.759c.004 0 .008.001.012.001.007 0 .014-.001.022-.001h32.421c-12.86 18.123-34.038 29.366-56.612 29.366zm128.472-44.368-2.093-40.43h28.95l6.371 40.43zm-15.021 0h-32.268l2.093-40.43h28.083zm-47.289 0h-33.228l6.371-40.43h28.95zm-48.412 0h-28.352c-1.07 0-1.702-.61-1.983-.974-.28-.364-.712-1.128-.442-2.165l9.708-37.292h27.441zm189.47-.973c-.281.364-.912.974-1.983.974h-28.352l-6.371-40.43h27.441l9.708 37.292c.269 1.036-.162 1.8-.443 2.164zm98.36-189.093c-6.347-.332-12.724.364-18.868 2.084 1.72-6.144 2.416-12.521 2.084-18.868zm-15.671-69.931c-.781 6.922-2.706 16.455-7.35 25.697l-7.127-7.127c-2.405-2.405-5.603-3.729-9.003-3.729s-6.598 1.324-9.003 3.729c-.031.031-.057.065-.087.096-.042.041-.088.075-.13.116l-8.608 8.608c-.864-15.327-4.025-30.256-9.367-44.422 8.531 1.634 16.92 4.433 25.112 7.171 8.074 2.699 15.701 5.248 23.201 6.619 1.5.274 2.538 1.698 2.362 3.242zm-41.625 48.921 17.689-17.69c12.104 17.166 10.202 40.715-4.845 55.761l-17.252 17.253c-2.739-1.93-5.716-3.567-8.9-4.853 7.31-15.871 11.811-32.996 13.308-50.471zm39.395 83.651c-6.877 6.879-15.781 11.171-25.267 12.376.03-.314.069-.626.092-.942.806-10.801-2.233-20.98-8.015-29.159l17.248-17.248c15.047-15.046 38.601-16.947 55.761-4.845zm5.925-95.831c7.341-12.521 10.165-25.783 11.211-35.056 1.059-9.348-5.341-17.994-14.568-19.682-6.453-1.18-13.59-3.565-21.146-6.09-11.203-3.744-23.793-7.946-37.067-9.079-3.76-7.247-8.128-14.235-13.093-20.905-2.473-3.322-7.173-4.011-10.494-1.537-3.322 2.473-4.011 7.172-1.537 10.495 17.4 23.372 26.715 51.058 26.938 80.064.175 22.9-5.431 45.59-16.21 65.615-1.147 2.132-1.196 4.686-.13 6.859s3.116 3.698 5.504 4.095c6.04 1.004 11.346 3.759 15.473 7.68.155.189.319.372.496.548.183.183.373.355.57.515.001.001.003.002.004.003 5.547 5.843 8.64 13.931 7.991 22.623-.181 2.422-.667 4.764-1.408 6.992-.096.242-.181.49-.253.745-3.879 10.688-13.824 18.566-25.584 19.4-8.546.604-16.616-2.335-22.727-8.284-1.4-1.363-3.277-2.126-5.231-2.126h-.292c-2.322 0-4.514 1.076-5.934 2.913-1.421 1.837-1.909 4.229-1.324 6.476l9.258 35.563h-25.9l-5.226-33.164c-.644-4.091-4.484-6.88-8.575-6.241-4.092.645-6.887 4.484-6.241 8.576l4.858 30.829h-27.365l-1.677-32.384c-.215-4.136-3.737-7.329-7.878-7.102-4.137.214-7.316 3.741-7.103 7.877l1.636 31.608h-26.528l1.636-31.608c.214-4.137-2.966-7.664-7.103-7.877-4.169-.22-7.663 2.966-7.878 7.102l-1.677 32.384h-27.363l4.858-30.829c.646-4.092-2.149-7.931-6.241-8.576-4.096-.64-7.931 2.15-8.575 6.241l-5.226 33.164h-25.9l9.258-35.563c.849-3.257-.578-6.681-3.487-8.373-2.911-1.692-6.59-1.239-9.003 1.11-6.108 5.948-14.176 8.893-22.727 8.284-14.454-1.025-26.167-12.692-27.244-27.138-1.146-15.369 9.401-28.854 24.534-31.368 2.388-.396 4.438-1.921 5.504-4.095 1.066-2.173 1.018-4.727-.129-6.858-10.608-19.707-16.215-42.027-16.215-64.547 0-36.604 14.304-70.971 40.275-96.768 25.745-25.573 59.841-39.62 96.107-39.62.314 0 .633.001.948.003 30.643.207 60.707 11.008 84.656 30.413 3.221 2.608 7.941 2.112 10.549-1.105 2.607-3.218 2.112-7.941-1.105-10.549-26.583-21.54-59.966-33.528-93.998-33.758-.353-.002-.701-.003-1.053-.003-1.736 0-3.466.04-5.193.098 13.711-14.897 30.274-26.457 48.517-34.142.332 3.087 2.567 5.768 5.763 6.506.568.131 1.136.194 1.695.194 3.413 0 6.499-2.346 7.301-5.813l1.524-6.598c12.206-3.438 24.958-5.229 37.95-5.229 3.884 0 7.729.167 11.533.479-2.762 2.918-2.743 7.519.097 10.407 1.468 1.492 3.407 2.24 5.347 2.24 1.899 0 3.799-.717 5.26-2.153l7.832-7.704c31.91 7.028 59.762 24.994 79.406 49.757h-.358c-4.143 0-7.5 3.358-7.5 7.5s3.357 7.5 7.5 7.5h10.742c12.581 20.964 19.826 45.479 19.826 71.657 0 10.714-1.214 21.253-3.564 31.478l-.242-.246c-2.901-2.955-7.651-2.996-10.605-.094-2.955 2.903-2.997 7.652-.094 10.606l6.081 6.189c-3.582 9.803-8.298 19.204-14.07 28.073z"/><path d="m196.739 202.774c-23.71 0-42.999 19.289-42.999 42.999s19.289 42.999 42.999 42.999 42.999-19.289 42.999-42.999-19.289-42.999-42.999-42.999zm0 70.998c-15.438 0-27.999-12.56-27.999-27.999s12.561-27.999 27.999-27.999 27.999 12.56 27.999 27.999-12.561 27.999-27.999 27.999z"/><path d="m315.243 202.774c-23.71 0-42.999 19.289-42.999 42.999s19.289 42.999 42.999 42.999 42.999-19.289 42.999-42.999-19.289-42.999-42.999-42.999zm0 70.998c-15.438 0-27.999-12.56-27.999-27.999s12.561-27.999 27.999-27.999 27.999 12.56 27.999 27.999-12.561 27.999-27.999 27.999z"/><path d="m255.766 291.802c-10.034 0-19.452 5.383-24.577 14.05-2.109 3.565-.929 8.165 2.637 10.273 3.566 2.109 8.166.927 10.273-2.638 2.477-4.186 6.838-6.686 11.667-6.686s9.19 2.5 11.667 6.686c1.399 2.368 3.897 3.683 6.462 3.683 1.298 0 2.613-.337 3.812-1.045 3.565-2.109 4.746-6.708 2.637-10.273-5.126-8.667-14.544-14.05-24.578-14.05z"/></g></g></svg>